inDegrees=no
num_controls=7
num_derivatives=13
num_iterations=173
num_multipliers=7
num_parameters=0
num_slacks=7
num_states=26
objective=5.600717
objective_accelerations=0.675072
objective_balance=0.043019
objective_effort=0.248547
objective_height=4.522463
objective_ligament=0.111616
solver_duration=1920.612830
status=Solve_Succeeded
success=true
DataType=double
version=3
OpenSimVersion=4.4-2022-07-23-0e9fedc
endheader
time	/jointset/ground_pelvis/pelvis_tilt/value	/jointset/ground_pelvis/pelvis_tx/value	/jointset/ground_pelvis/pelvis_ty/value	/jointset/hip_l/hip_flexion_l/value	/jointset/hip_l/hip_adduction_l/value	/jointset/hip_l/hip_rotation_l/value	/jointset/back/lumbar_extension/value	/jointset/patellofemoral_l/patellar_flexion_l/value	/jointset/knee_l/knee_flexion_l/value	/jointset/knee_l/knee_adduction_l/value	/jointset/knee_l/knee_rotation_l/value	/jointset/ankle_l/ankle_angle_l/value	/jointset/subtalar_l/subtalar_angle_l/value	/jointset/ground_pelvis/pelvis_tilt/speed	/jointset/ground_pelvis/pelvis_tx/speed	/jointset/ground_pelvis/pelvis_ty/speed	/jointset/hip_l/hip_flexion_l/speed	/jointset/hip_l/hip_adduction_l/speed	/jointset/hip_l/hip_rotation_l/speed	/jointset/back/lumbar_extension/speed	/jointset/patellofemoral_l/patellar_flexion_l/speed	/jointset/knee_l/knee_flexion_l/speed	/jointset/knee_l/knee_adduction_l/speed	/jointset/knee_l/knee_rotation_l/speed	/jointset/ankle_l/ankle_angle_l/speed	/jointset/subtalar_l/subtalar_angle_l/speed	/forceset/tau_hip_flexion_l	/forceset/tau_hip_adduction_l	/forceset/tau_hip_rotation_l	/forceset/tau_knee_flexion_l	/forceset/tau_ankle_angle_l	/forceset/tau_subtalar_angle_l	/forceset/tau_lumbar_extension	lambda_cid13_p0	lambda_cid13_p1	lambda_cid13_p2	lambda_cid13_p3	lambda_cid13_p4	lambda_cid13_p5	lambda_cid14_p0	/jointset/ground_pelvis/pelvis_tilt/accel	/jointset/ground_pelvis/pelvis_tx/accel	/jointset/ground_pelvis/pelvis_ty/accel	/jointset/hip_l/hip_flexion_l/accel	/jointset/hip_l/hip_adduction_l/accel	/jointset/hip_l/hip_rotation_l/accel	/jointset/back/lumbar_extension/accel	/jointset/patellofemoral_l/patellar_flexion_l/accel	/jointset/knee_l/knee_flexion_l/accel	/jointset/knee_l/knee_adduction_l/accel	/jointset/knee_l/knee_rotation_l/accel	/jointset/ankle_l/ankle_angle_l/accel	/jointset/subtalar_l/subtalar_angle_l/accel	gamma_cid13_p0	gamma_cid13_p1	gamma_cid13_p2	gamma_cid13_p3	gamma_cid13_p4	gamma_cid13_p5	gamma_cid14_p0
1.5	-0.2724710715392979	0.03771945953259425	0.7741212875102995	0.9402691032571951	-0.4455327989427304	-0.2244601227384435	-0.2153345209510846	0.8495972662676129	0.8495972662676093	-0.116319540745606	-0.15820076061535	0.2449424531985056	0.03766104961988385	0.4219556153980434	0.1419519413290522	0.4928910447993404	-2.029333292486319	0.2405412838390711	-0.7696196251302841	0.3356828924796853	-2.131695496173937	-2.131695496173907	-0.1529538904268998	0.08553509800641924	-0.7103932673176188	-0.1261135412473365	-0.1292163172206206	0.03849515559191637	-0.01168447720008598	-0.2161036147457574	-0.02322315643505635	0.03612497000724825	0.1371533132018221	-38.98287926699776	-13.22916522661201	6.759864863623159	-1.585289385714673	-520.6091481778506	-66.01614817390633	-23.0933000450518	0.3842365316372984	0.4503487892657619	-0.5235638078702542	-0.953009197909341	0.6972838043547125	-0.2796839582894923	1.228546777668293	-1.433328576097504	-1.433328576097504	0.06321922264063787	0.1600708250104638	-0.6675597275099263	0.5459098218843375	6.134584481001119e-07	1.21754517143004e-07	-3.903509835895522e-06	-2.090588648044563e-07	7.861018187866236e-07	7.175277445670248e-07	5.075470101419885e-07
1.51	-0.2682322184682109	0.03916135978091381	0.7790230237736324	0.9199295559001643	-0.4430939516585919	-0.2321661388384036	-0.2119174211387838	0.8282109862864876	0.8282109862864834	-0.1178509225227446	-0.157336838175175	0.237805654759197	0.03642536951101021	0.4257548463251402	0.1464081655247064	0.4873505717037243	-2.038286002039754	0.2472071918353361	-0.7714775721523877	0.3476900236766037	-2.145259392268315	-2.145259392268284	-0.1533183849827054	0.08724596332718933	-0.7168588221530603	-0.1210007114860114	-0.1246316120606639	0.03725077210293921	-0.01159327291577024	-0.2128582671557729	-0.02103144887509667	0.03583891600193639	0.1332594569369893	-38.11406705802507	-13.27766883469777	6.791142515728514	-1.770915306845123	-517.1524393963916	-66.09342869640508	-24.09099148717496	0.3688239811512051	0.4402366223400986	-0.5849729368048484	-0.8227800271476807	0.6485989111403754	-0.1224569329598354	1.179739345110741	-1.272857789027154	-1.272857789026938	-0.08575658970597283	0.1753546532767227	-0.6199018982532991	0.4976253536539483	6.361619614825241e-07	2.764770617532433e-07	-3.849292276812479e-06	-1.740099119439425e-07	8.003834496026344e-07	8.541963222416258e-07	5.152061564800107e-07
1.52	-0.2639571615662716	0.04064721774871485	0.7838662185307298	0.8995092058089819	-0.4405889743717147	-0.2398874557803433	-0.2083816614036325	0.8066980798118333	0.8066980798118312	-0.1193858438044432	-0.1564560550282612	0.2306074310641955	0.03524154885982935	0.4291963815684507	0.1507434852253542	0.4811827435522111	-2.045493839316673	0.2537672843867205	-0.7726797935260535	0.3594148770498075	-2.157020794879461	-2.157020794879428	-0.1536617913391036	0.08890723935461708	-0.7226783184561829	-0.1157416497087923	-0.1200469069007083	0.03600638861396104	-0.01150206863143075	-0.2096129195657897	-0.01883974131513723	0.0355528619966226	0.1293656006721556	-37.24656636480728	-13.32668732918006	6.823355590471202	-2.002167906354304	-513.7426760616308	-66.23737237983212	-25.08820661729964	0.3126973948800509	0.4261678902645089	-0.649034819049642	-0.6040347426058879	0.6761207153786242	-0.1485388286019694	1.172091212925366	-1.072829879450968	-1.072829879450967	0.06743686252212402	0.150152966342002	-0.5383480210461147	0.5751562250631408	6.575234134374815e-07	4.217387130454194e-07	-3.800037221172407e-06	-1.425079123841042e-07	8.19020353400616e-07	9.84413535691586e-07	5.219819854771551e-07
1.53	-0.2596494348133185	0.04217574025903735	0.7886446725354963	0.8790254469100246	-0.4380190235936104	-0.2476179008262486	-0.2047302571866175	0.7850765988788709	0.7850765988788587	-0.1209238973029956	-0.1555590775397528	0.2233542087361749	0.03411092654391581	0.4322855061873397	0.1549319541424099	0.4744082667021735	-2.050952317434633	0.2601974497453679	-0.7733021852807251	0.3708076029705806	-2.166958764485929	-2.16695876448592	-0.1539386366069059	0.09048493126932974	-0.7278553132295911	-0.1103650444309107	-0.1155283904762687	0.03485703895162895	-0.01133514501356278	-0.2062980904500339	-0.01686693046781169	0.0350310630544989	0.1254903695282391	-36.46920424884948	-13.23980057675099	6.813637000186281	-2.046100327673881	-510.4673281958056	-66.17345257290816	-26.08362397252707	0.2975772976767077	0.4108070024628634	-0.7064517749334883	-0.4708192178902266	0.6231123645239606	-0.002527250569535068	1.114108774247009	-0.90689260603875	-0.9068926060422641	-0.07376596592683199	0.1603747618871599	-0.4907231314375912	0.5219137551159023	6.774589251257681e-07	5.569481651871533e-07	-3.756054825440492e-06	-1.147745507062335e-07	8.422847347419417e-07	1.107776174652866e-06	5.278192897996167e-07
1.54	-0.2553127053537196	0.04374527158053775	0.7933524222403717	0.858496290255588	-0.4353854415782359	-0.2553512573700352	-0.2009666766118761	0.7633652158288843	0.7633652158288636	-0.1224644234031245	-0.1546465636405285	0.2160525468752304	0.03303467049597418	0.4349969228975646	0.1589452474609354	0.4670418835740374	-2.054573390412556	0.2664935318406617	-0.7732620931021877	0.3818501485951025	-2.175001218284155	-2.175001218284169	-0.1541563116545257	0.09201452149809272	-0.7323662250409759	-0.10486839611442	-0.1110098740518308	0.03370768928929543	-0.01116822139568068	-0.2029832613342787	-0.01489411962048634	0.03450926411237294	0.1216151383843214	-35.69170147099828	-13.15496319381272	6.806560751852868	-2.141917792393514	-507.221522518599	-66.17586657970497	-27.07667030505591	0.2371558131472586	0.3911327705584605	-0.7674160746692895	-0.2365537145983798	0.649304062707893	-0.01604204196017448	1.102055153675098	-0.6937267178024256	-0.6937267178024195	0.07927090655860526	0.1405326291520657	-0.4051314286414429	0.5991648327849745	6.92473270250856e-07	7.743295973762696e-07	-3.634032725875848e-06	-6.813731314411939e-08	8.564803037807778e-07	1.235934518181949e-06	5.334602738706512e-07
1.55	-0.2509506790433332	0.04535412323900401	0.7979836757353501	0.8379397010851365	-0.4326897525672529	-0.2630816716891143	-0.1970947272708209	0.7415828169382922	0.7415828169382745	-0.1240066527444879	-0.153719537066719	0.2087092049322252	0.03201384391161478	0.4373368690424411	0.1628011329678573	0.4591187670425007	-2.056447970571695	0.2726056069246119	-0.7726876297054516	0.3924677912631475	-2.181158228296872	-2.18115822829686	-0.1543108438045599	0.09340315447686114	-0.7361758758226516	-0.09928658358408009	-0.106068219782189	0.03163107079076159	-0.01100166309527264	-0.2007520378228274	-0.01178165257713311	0.03404279353374708	0.1174444519119624	-34.56430937382245	-13.15481844678104	6.81229916119112	-2.510343761274545	-504.2466265807921	-66.43035959904407	-28.06748677112962	0.2217504333506253	0.3792314091897621	-0.8180942375564827	-0.1183686725606664	0.5866917547749748	0.1146777670237007	1.030829570436046	-0.5287467890483948	-0.5287467890445248	-0.06597189676981075	0.139260950179491	-0.3498805900898663	0.5394242659830657	7.018175756400845e-07	1.086387441359104e-06	-3.4220953153735e-06	2.804770672305896e-10	8.60227023862398e-07	1.369618347408718e-06	5.388750628693893e-07
1.56	-0.2465673859878594	0.04700081674622563	0.8025330311059811	0.8173732744118961	-0.4299340363007225	-0.2708022439269197	-0.1931187593536719	0.7197484362183635	0.7197484362183514	-0.1255510587315482	-0.1527783776995352	0.2013315667439713	0.03104918241312373	0.4392502719150295	0.1665136172120058	0.4506622587045503	-2.056540890970393	0.2784989829500168	-0.7712936768473878	0.4026538638138666	-2.18539758415127	-2.185397584151232	-0.1545916407940092	0.09484108017323981	-0.7392254740906963	-0.09363537894075748	-0.1011265655125443	0.02955445229222778	-0.0108351047948533	-0.1985208143113756	-0.008669185533779598	0.03357632295512122	0.1132737654396055	-33.43459236262054	-13.15531008615283	6.818403733920595	-2.930841166998699	-501.2681369607533	-66.74258655386816	-29.0570583572208	0.1518471586896539	0.3624525180037615	-0.8740944359520034	0.1197782374900202	0.6055642509988314	0.1478558503053645	1.015741130209929	-0.3101958861383158	-0.3101958861383229	0.05401793867558787	0.1503911726741137	-0.2531209259151899	0.6130432553815285	6.516031954991684e-07	1.455219676548517e-06	-2.881159942977866e-06	1.049613342439863e-07	7.83638920793634e-07	1.405880095112971e-06	5.109495980276928e-07
